# xmcd
#
# Track frame offsets:
#	150
#	19939
#	33761
#	43537
#	44419
#	57727
#	70651
#	87090
#	100757
#	116155
#	129515
#	144120
#	157029
#	172207
#	185163
#	200224
#
# Disc length: 2783 seconds
#
# Revision: 0
# Processed by: cddbd v1.5.2PL0 Copyright (c) Steve Scherf et al.
# Submitted via: audiograbber 1.83.01
#
DISCID=e90add10
DTITLE=Hillcrest - Hillcrest Pure Country 88
DYEAR=2018
DGENRE=Country
TTITLE0=Lonnie Spiker -The First To Say Goodbye
TTITLE1=Andy Martin -Honky Tonks Are Calling Me Again
TTITLE2=Lindsay Waddington -Nullarbor
TTITLE3=Clelia Adams ID - Clelia Adams ID
TTITLE4=Clelia Adams -Honky Tonk Stardust Cowboy
TTITLE5=Darnell Miller - Love Might Be The Death Of Me
TTITLE6=Johnny BuBush - Its Not The Same Good Mornin With You Gone
TTITLE7=Lonnie Bartmess - Big City
TTITLE8=Bonita Mercer -The Lyin Gets Easy
TTITLE9=Paul Alan Coones -Wine Me Up
TTITLE10=Steve Garner -Cool Cool Cool
TTITLE11=Graeme Clarke -Some Broken Hearts Never Mend
TTITLE12=Don Allen -You Cant Take That Away From Me
TTITLE13=Kylie Adams Collier -Hook Line And Sinker
TTITLE14=Don Allen -Liquor Up Liquor Down
TTITLE15=Hyram Posey -Dragoon
EXTD=
EXTT0=
EXTT1=
EXTT2=
EXTT3=
EXTT4=
EXTT5=
EXTT6=
EXTT7=
EXTT8=
EXTT9=
EXTT10=
EXTT11=
EXTT12=
EXTT13=
EXTT14=
EXTT15=
PLAYORDER=
